<svg xmlns="http://www.w3.org/2000/svg" width="800" height="800" viewBox="0 0 800 800">
  <rect width="800" height="800" fill="#0A0C10"/>
  <g transform="translate(51.8,11.4) scale(5.8)">
    <g fill="none" stroke="#E6E4DF" stroke-width="2" stroke-linecap="round" stroke-linejoin="round">
      <path d="M54 46 38 34 22 34M51 54 34 50 18 54M51 63 34 69 20 80M55 70 43 84 38 100"/>
      <path d="M66 46 82 34 98 34M69 54 86 50 102 54M69 63 86 69 100 80M65 70 77 84 82 100"/>
    </g>
    <circle fill="#E6E4DF" cx="60" cy="45" r="8"/>
    <ellipse fill="#E6E4DF" cx="60" cy="63" rx="12" ry="15"/>
    <circle fill="#C29055" cx="106" cy="50" r="5"/>
  </g>
</svg>
